#!OML:ASF F:\VICON\USERDATA\INSTALL\rory3\rory3.ASF
:FULLY-SPECIFIED
:DEGREES
1096
root 4.20222 15.948 2.00038 23.8282 -3.73545 -2.71412
lowerback 9.90481 -0.390424 2.07223
upperback 9.81383 -0.390684 -0.999159
thorax 4.70128 -0.045309 -2.18189
lowerneck -19.398 -0.929773 -1.457
upperneck 38.6856 -0.0886763 -1.83728
head 17.5218 -0.530262 -0.601278
rclavicle 1.59028e-015 -8.74653e-015
rhumerus -55.8741 69.5148 -59.5218
rradius 56.2187
rwrist -15.1463
rhand -9.73904 -41.4492
rfingers 7.12502
rthumb 16.2349 -70.7894
lclavicle 1.59028e-015 -8.74653e-015
lhumerus -32.6508 -78.5354 29.9412
lradius 58.2496
lwrist 61.5352
lhand -27.1312 -27.9877
lfingers 7.12502
lthumb -0.546814 1.99137
rfemur -76.1003 -1.8962 20.1419
rtibia 37.368
rfoot 35.4738 -1.79496
rtoes 1.04368
lfemur -57.6251 -0.869603 -26.6566
ltibia 58.9132
lfoot -23.3784 6.62564
ltoes 9.90054
1097
root 4.19978 15.9464 1.9989 23.8291 -3.79865 -2.76042
lowerback 9.97121 -0.367049 2.0498
upperback 9.79709 -0.360309 -1.00001
thorax 4.64835 -0.0324907 -2.17152
lowerneck -19.3766 -0.910022 -1.32979
upperneck 38.6779 -0.0360005 -2.01556
head 17.5122 -0.515739 -0.694522
rclavicle 1.43125e-014 -7.95139e-016
rhumerus -55.8431 69.5287 -59.5481
rradius 56.2027
rwrist -15.1848
rhand -9.67292 -41.4326
rfingers 7.12502
rthumb 16.2986 -70.7676
lclavicle 1.43125e-014 -7.95139e-016
lhumerus -32.9973 -78.6836 30.1918
lradius 58.352
lwrist 61.6653
lhand -27.3443 -28.0209
lfingers 7.12502
lthumb -0.752647 1.95748
rfemur -76.109 -1.79073 20.1448
rtibia 37.3623
rfoot 35.5651 -1.3839
rtoes 0.00485738
lfemur -57.6549 -0.776178 -26.6253
ltibia 58.9384
lfoot -23.4442 6.57032
ltoes 9.97016
1098
root 4.20063 15.9476 1.99822 23.8424 -3.84457 -2.70313
lowerback 9.9651 -0.393049 1.95673
upperback 9.76829 -0.399668 -1.00537
thorax 4.61824 -0.0579877 -2.12239
lowerneck -19.3269 -0.880817 -1.44073
upperneck 38.6869 0.0154624 -1.93332
head 17.5053 -0.500594 -0.626833
rclavicle -4.77083e-015 4.77083e-015
rhumerus -55.8929 69.7425 -59.5691
rradius 56.2764
rwrist -15.3058
rhand -9.62977 -41.5235
rfingers 7.12502
rthumb 16.3401 -70.8551
lclavicle -4.77083e-015 4.77083e-015
lhumerus -33.9138 -78.6072 31.1257
lradius 58.3007
lwrist 61.569
lhand -27.2932 -28.1312
lfingers 7.12502
lthumb -0.703294 1.84741
rfemur -76.1399 -1.8025 20.0863
rtibia 37.3579
rfoot 35.6605 -1.33054
rtoes -0.0642399
lfemur -57.6606 -0.778739 -26.6964
ltibia 58.9386
lfoot -23.456 6.56676
ltoes 10.0932
1099
root 4.20061 15.9474 1.99788 23.8833 -3.88027 -2.67921
lowerback 9.92286 -0.451956 1.8658
upperback 9.73092 -0.48331 -0.985535
thorax 4.59668 -0.106267 -2.04572
lowerneck -19.1772 -0.796208 -1.5122
upperneck 38.5829 0.178493 -1.97097
head 17.411 -0.451564 -0.596125
rclavicle 8.34896e-015 2.78299e-015
rhumerus -55.4569 69.5767 -59.383
rradius 56.0185
rwrist -14.9559
rhand -9.48959 -41.478
rfingers 7.12502
rthumb 16.4751 -70.7984
lclavicle 8.34896e-015 2.78299e-015
lhumerus -35.119 -78.447 32.3063
lradius 58.2716
lwrist 61.4852
lhand -26.9526 -27.8361
lfingers 7.12502
lthumb -0.374271 2.14336
rfemur -76.1983 -1.81056 20.0761
rtibia 37.3546
rfoot 35.7002 -1.31623
rtoes -0.130191
lfemur -57.7061 -0.774908 -26.732
ltibia 58.9261
lfoot -23.374 6.60095
ltoes 9.99413
1100
root 4.20114 15.9492 1.99727 23.8834 -3.89458 -2.61778
lowerback 9.8888 -0.482747 1.79275
upperback 9.75776 -0.528473 -0.989421
thorax 4.6421 -0.132087 -2.00661
lowerneck -19.1906 -0.735667 -1.38476
upperneck 38.5242 0.325687 -2.23083
head 17.3847 -0.410841 -0.706931
rclavicle 5.1684e-015 -1.90833e-014
rhumerus -55.1337 69.7254 -59.0589
rradius 56.0706
rwrist -15.0704
rhand -9.21174 -41.419
rfingers 7.12502
rthumb 16.7426 -70.7171
lclavicle 5.1684e-015 -1.90833e-014
lhumerus -35.3961 -78.2566 32.5243
lradius 58.3157
lwrist 61.3879
lhand -27.054 -27.9166
lfingers 7.12502
lthumb -0.472196 2.06257
rfemur -76.2182 -1.85229 20.0282
rtibia 37.3618
rfoot 35.65 -1.10132
rtoes -0.616581
lfemur -57.6927 -0.789445 -26.8058
ltibia 58.8945
lfoot -23.3495 6.61163
ltoes 9.6696
1101
root 4.20078 15.9513 1.99728 23.8719 -3.90902 -2.57068
lowerback 9.86918 -0.460343 1.74777
upperback 9.77901 -0.501552 -1.00632
thorax 4.67711 -0.120097 -2.00089
lowerneck -19.2611 -0.766783 -1.37526
upperneck 38.5843 0.281489 -2.23649
head 17.4356 -0.428187 -0.721565
rclavicle -1.78906e-014 -3.97569e-015
rhumerus -55.1882 69.6291 -59.0662
rradius 56.1052
rwrist -15.0941
rhand -9.02182 -41.291
rfingers 7.12502
rthumb 16.9254 -70.5735
lclavicle -1.78906e-014 -3.97569e-015
lhumerus -35.0253 -78.1076 32.181
lradius 58.2811
lwrist 61.2323
lhand -27.1025 -28.1487
lfingers 7.12502
lthumb -0.51908 1.83044
rfemur -76.2127 -1.82824 19.9166
rtibia 37.3735
rfoot 35.5882 -1.34343
rtoes 0.00348807
lfemur -57.6599 -0.785858 -26.8654
ltibia 58.8636
lfoot -23.4028 6.61046
ltoes 9.40792
1102
root 4.19792 15.9498 1.99879 23.88 -3.97257 -2.53616
lowerback 9.8699 -0.423369 1.64097
upperback 9.76039 -0.458836 -1.01785
thorax 4.65866 -0.105087 -1.9553
lowerneck -19.2391 -0.802385 -1.42536
upperneck 38.6411 0.223794 -2.17674
head 17.4607 -0.450247 -0.697747
rclavicle -5.1684e-015 -1.98785e-015
rhumerus -55.4178 69.6654 -59.2232
rradius 56.1775
rwrist -15.1103
rhand -8.9073 -41.2177
rfingers 7.12502
rthumb 17.0357 -70.4907
lclavicle -5.1684e-015 -1.98785e-015
lhumerus -34.989 -78.0831 32.1578
lradius 58.259
lwrist 61.1987
lhand -27.0039 -27.9483
lfingers 7.12502
lthumb -0.423848 2.03105
rfemur -76.2343 -1.7035 19.7423
rtibia 37.3874
rfoot 35.6373 -1.60984
rtoes 0.442333
lfemur -57.6672 -0.735119 -26.9152
ltibia 58.8409
lfoot -23.4377 6.61069
ltoes 9.31803
1103
root 4.1962 15.9468 2.00011 23.8793 -4.02221 -2.49461
lowerback 9.91861 -0.430487 1.52467
upperback 9.74548 -0.474348 -1.01491
thorax 4.6152 -0.120346 -1.88566
lowerneck -19.2376 -0.791092 -1.48321
upperneck 38.6502 0.263449 -2.17742
head 17.4662 -0.443522 -0.680097
rclavicle 4.77083e-015 -7.55382e-015
rhumerus -55.3273 69.8605 -59.1061
rradius 56.2372
rwrist -15.117
rhand -8.88948 -41.2616
rfingers 7.12502
rthumb 17.0528 -70.5331
lclavicle 4.77083e-015 -7.55382e-015
lhumerus -35.5158 -77.9717 32.6522
lradius 58.2784
lwrist 61.2011
lhand -27.0414 -27.7116
lfingers 7.12502
lthumb -0.460063 2.26769
rfemur -76.2692 -1.62549 19.605
rtibia 37.4048
rfoot 35.6843 -1.58901
rtoes 0.213686
lfemur -57.666 -0.700133 -26.9743
ltibia 58.8293
lfoot -23.4611 6.65098
ltoes 9.30963
1104
root 4.19816 15.9453 1.99958 23.8929 -3.98009 -2.5222
lowerback 9.95206 -0.476992 1.56254
upperback 9.72898 -0.533256 -0.989775
thorax 4.57643 -0.148877 -1.87684
lowerneck -19.2719 -0.778488 -1.60214
upperneck 38.6953 0.298431 -2.10019
head 17.5007 -0.437241 -0.617899
rclavicle -9.93923e-015 1.74931e-014
rhumerus -55.2962 70.1933 -58.9844
rradius 56.3846
rwrist -15.344
rhand -9.10156 -41.3636
rfingers 7.12502
rthumb 16.8487 -70.6527
lclavicle -9.93923e-015 1.74931e-014
lhumerus -36.0942 -77.721 33.2438
lradius 58.2204
lwrist 61.0558
lhand -26.9924 -27.6232
lfingers 7.12502
lthumb -0.412767 2.3561
rfemur -76.3017 -1.68534 19.6793
rtibia 37.4244
rfoot 35.6411 -1.47511
rtoes -0.08721
lfemur -57.678 -0.707811 -26.9521
ltibia 58.8353
lfoot -23.4544 6.6541
ltoes 9.55626
1105
root 4.20022 15.9458 1.99937 23.8789 -3.89667 -2.56659
lowerback 9.97659 -0.518204 1.64769
upperback 9.71805 -0.58247 -0.961637
thorax 4.5489 -0.169746 -1.89203
lowerneck -19.2592 -0.774222 -1.64366
upperneck 38.6977 0.311711 -2.07919
head 17.4989 -0.435323 -0.598269
rclavicle -2.3059e-014 -3.57812e-015
rhumerus -55.3888 70.0237 -59.1485
rradius 56.2706
rwrist -15.2408
rhand -9.44744 -41.3106
rfingers 7.12502
rthumb 16.5157 -70.6277
lclavicle -2.3059e-014 -3.57812e-015
lhumerus -36.4561 -77.5723 33.6508
lradius 58.1302
lwrist 60.8539
lhand -26.9924 -27.6312
lfingers 7.12502
lthumb -0.412789 2.3481
rfemur -76.2808 -1.79013 19.8149
rtibia 37.4474
rfoot 35.6216 -1.25047
rtoes -0.481957
lfemur -57.6711 -0.73416 -26.8894
ltibia 58.8453
lfoot -23.3924 6.53461
ltoes 10.0929
1106
root 4.1997 15.9452 2.00052 23.8607 -3.89485 -2.53246
lowerback 9.9981 -0.515596 1.59045
upperback 9.68416 -0.581998 -0.955004
thorax 4.50077 -0.173766 -1.85255
lowerneck -19.0913 -0.768441 -1.5895
upperneck 38.5581 0.339096 -2.19508
head 17.3792 -0.430828 -0.65147
rclavicle 8.34896e-015 5.96354e-015
rhumerus -55.7418 70.021 -59.5155
rradius 56.1898
rwrist -15.2941
rhand -9.303 -41.1877
rfingers 7.12502
rthumb 16.6548 -70.4932
lclavicle 8.34896e-015 5.96354e-015
lhumerus -36.8051 -77.5699 34.0464
lradius 58.0736
lwrist 60.7518
lhand -27.158 -27.7388
lfingers 7.12502
lthumb -0.572684 2.24019
rfemur -76.2762 -1.79338 19.7744
rtibia 37.4734
rfoot 35.6206 -1.10976
rtoes -0.742031
lfemur -57.6517 -0.736664 -26.9141
ltibia 58.8447
lfoot -23.3613 6.4619
ltoes 10.3125
1107
root 4.19981 15.9436 2.00081 23.8726 -3.91937 -2.49194
lowerback 9.9867 -0.489372 1.55355
upperback 9.65763 -0.549251 -0.975879
thorax 4.47985 -0.159208 -1.85546
lowerneck -18.9694 -0.795892 -1.60194
upperneck 38.4747 0.290511 -2.17707
head 17.3014 -0.447913 -0.648118
rclavicle -2.10712e-014 -2.78299e-015
rhumerus -56.038 70.0544 -59.7612
rradius 56.19
rwrist -15.3216
rhand -8.92428 -41.1138
rfingers 7.12502
rthumb 17.0193 -70.3882
lclavicle -2.10712e-014 -2.78299e-015
lhumerus -36.6732 -77.6444 33.9272
lradius 58.063
lwrist 60.7801
lhand -27.5232 -28.3233
lfingers 7.12502
lthumb -0.925452 1.6544
rfemur -76.322 -1.76759 19.6978
rtibia 37.5043
rfoot 35.6202 -1.10002
rtoes -0.773914
lfemur -57.6491 -0.714534 -26.9659
ltibia 58.8391
lfoot -23.4227 6.4322
ltoes 10.142
